<?xml version="1.0" encoding="UTF-8"?>
<svg height="128px" viewBox="0 0 128 128" width="128px" xmlns="http://www.w3.org/2000/svg" xmlns:xlink="http://www.w3.org/1999/xlink">
    <linearGradient id="a" gradientUnits="userSpaceOnUse" x1="99.999992" x2="107.999992" y1="82.999893" y2="82.999893">
        <stop offset="0" stop-color="#deddda"/>
        <stop offset="0.511049" stop-color="#ffffff"/>
        <stop offset="1" stop-color="#c0bfbc"/>
    </linearGradient>
    <clipPath id="b">
        <rect height="128" width="128"/>
    </clipPath>
    <clipPath id="c">
        <rect height="128" width="128"/>
    </clipPath>
    <filter id="d" height="100%" width="100%" x="0%" y="0%">
        <feColorMatrix in="SourceGraphic" type="matrix" values="0 0 0 0 1 0 0 0 0 1 0 0 0 0 1 0 0 0 1 0"/>
    </filter>
    <mask id="e">
        <g clip-path="url(#c)" filter="url(#d)">
            <g clip-path="url(#b)">
                <path d="m 20 28 v 92 h 80 c 4.433594 0 8 -3.566406 8 -8 v -76 c 0 -4.433594 -3.566406 -8 -8 -8 z m 0 0" fill="#1c71d8"/>
                <path d="m 22 48 v 70 h 78 c 4.433594 0 8 -3.566406 8 -8 v -54 c 0 -4.433594 -3.566406 -8 -8 -8 z m 0 0" fill="url(#a)"/>
                <path d="m 20 28 v 84 h 80 c 4.433594 0 8 -3.566406 8 -8 v -68 c 0 -4.433594 -3.566406 -8 -8 -8 z m 0 0" fill="#1c71d8"/>
                <path d="m 20 8 v 102 h 80 c 4.433594 0 8 -3.566406 8 -8 v -86 c 0 -4.433594 -3.566406 -8 -8 -8 z m 0 0" fill="#3584e4"/>
                <path d="m 73.871094 118.058594 c 0.371094 -0.003906 0.980468 -0.003906 1.351562 0 c 0.371094 0 0.066406 0.003906 -0.675781 0.003906 s -1.046875 -0.003906 -0.675781 -0.003906 z m 0 0" fill="#800000"/>
                <path d="m 72.941406 118.054688 h -0.117187 l -0.003907 -0.027344 v -0.027344 h 1.371094 c 0.753906 0 1.371094 0 1.367188 0.003906 c 0 0 -0.542969 0.003906 -1.207032 0.003906 c -1.105468 0.003907 -1.449218 0.007813 -1.503906 0.015626 c -0.019531 0.003906 -0.023437 0.007812 -0.007812 0.011718 c 0.023437 0.007813 0.238281 0.011719 0.640625 0.015625 c 0.273437 0 0.390625 0.003907 0.332031 0.003907 c -0.085938 0.003906 -0.632812 0.003906 -0.871094 0 z m 0 0" fill="#800000"/>
                <path d="m 73.722656 118.054688 h 0.132813 c 0.039062 0.003906 0.019531 0.003906 -0.070313 0.003906 c -0.105468 0 -0.117187 0 -0.0625 -0.003906 z m 0 0" fill="#800000"/>
                <path d="m 71.6875 119.996094 h 1.132812 l 0.003907 -0.070313 v -0.070312 v 0.066406 l 0.003906 0.070313 h 1.367187 c 0.90625 0 1.367188 0 1.367188 0.003906 s -0.835938 0.003906 -2.503906 0.003906 c -1.847656 0 -2.207032 0 -1.371094 -0.003906 z m 0 0" fill="#800000"/>
                <path d="m 72.824219 119.957031 c 0 -0.015625 0 -0.046875 0.003906 -0.066406 c 0 -0.035156 0 -0.035156 0 0.027344 c 0.003906 0.039062 0 0.070312 0 0.070312 s 0 -0.011719 -0.003906 -0.03125 z m 0 0" fill="#800000"/>
                <path d="m 20 8 h 11.964844 v 102 h -11.964844 z m 0 0" fill="#3d3846"/>
                <path d="m 20 110 v 10 h 11.984375 v -2.027344 l -8.988281 0.027344 v -6 h 8.988281 l -0.019531 -2 z m 0 0" fill="#241f31"/>
                <g fill="#1c71d8">
                    <use x="40.234375" xlink:href="#j" y="63.515625"/>
                    <use x="64.234375" xlink:href="#k" y="63.515625"/>
                    <use x="78.234375" xlink:href="#l" y="63.515625"/>
                    <use x="88.234375" xlink:href="#m" y="63.515625"/>
                </g>
                <g fill="#ffffff">
                    <use x="40.234375" xlink:href="#j" y="64.515625"/>
                    <use x="64.234375" xlink:href="#k" y="64.515625"/>
                    <use x="78.234375" xlink:href="#l" y="64.515625"/>
                    <use x="88.234375" xlink:href="#m" y="64.515625"/>
                </g>
                <path d="m 40 68 h 60" fill="none" stroke="#1c71d8" stroke-width="2.4"/>
                <path d="m 40 69 h 60" fill="none" stroke="#ffffff" stroke-width="2.4"/>
                <path d="m 26.984375 115 v 10 l 5 -5 l 5 5 v -10 z m 0 0" fill="#e01b24"/>
            </g>
        </g>
    </mask>
    <mask id="f">
        <g filter="url(#d)">
            <rect fill-opacity="0.8" height="128" width="128"/>
        </g>
    </mask>
    <linearGradient id="g" gradientTransform="matrix(0 0.37 -0.98462 0 295.38501 -30.360001)" gradientUnits="userSpaceOnUse" x1="300" x2="428" y1="235" y2="235">
        <stop offset="0" stop-color="#f9f06b"/>
        <stop offset="1" stop-color="#f5c211"/>
    </linearGradient>
    <clipPath id="h">
        <rect height="128" width="128"/>
    </clipPath>
    <clipPath id="i">
        <rect height="128" width="128"/>
    </clipPath>
    <symbol id="j" overflow="visible">
        <path d="m 4.953125 0 h 3.25 l 3.5625 -12.40625 l 3.875 12.40625 h 3.171875 l 4.78125 -16.4375 h -3.078125 l -3.21875 12.390625 l -3.671875 -12.296875 h -3.375 l -3.546875 12.546875 l -3.125 -12.640625 h -3.484375 z m 0 0"/>
    </symbol>
    <symbol id="k" overflow="visible">
        <path d="m 6.734375 0.234375 c 3.609375 0 6.0625 -2.484375 6.0625 -6.1875 c 0 -3.515625 -2.25 -5.796875 -5.71875 -5.796875 c -3.640625 0 -6.078125 2.46875 -6.078125 6.1875 c 0 3.5 2.21875 5.796875 5.734375 5.796875 z m 0.25 -2.5625 c -1.765625 0 -2.9375 -1.359375 -2.9375 -3.5 c 0 -2.078125 1.0625 -3.359375 2.75 -3.359375 c 1.78125 0 2.9375 1.390625 2.9375 3.546875 c 0 2.046875 -1.0625 3.3125 -2.75 3.3125 z m 0 0"/>
    </symbol>
    <symbol id="l" overflow="visible">
        <path d="m 1.703125 0 h 3.03125 v -7.484375 c 0.6875 -0.828125 1.65625 -1.296875 2.734375 -1.296875 c 0.46875 0 1.03125 0.09375 1.46875 0.25 l 0.671875 -2.765625 c -0.46875 -0.21875 -1.078125 -0.328125 -1.703125 -0.328125 c -1.375 0 -2.625 0.65625 -3.5 1.8125 l -0.28125 -1.703125 h -2.421875 z m 0 0"/>
    </symbol>
    <symbol id="m" overflow="visible">
        <path d="m 6 0.234375 c 1.4375 0 2.671875 -0.5625 3.515625 -1.5625 l 0.640625 1.328125 h 1.953125 v -17.5 h -2.9375 v 6.625 c -0.734375 -0.59375 -1.6875 -0.875 -2.78125 -0.875 c -3.234375 0 -5.390625 2.421875 -5.390625 6.09375 c 0 3.546875 2.0625 5.890625 5 5.890625 z m 3.171875 -3.59375 c -0.53125 0.65625 -1.3125 1.03125 -2.234375 1.03125 c -1.78125 0 -2.890625 -1.359375 -2.890625 -3.515625 c 0 -2.0625 1.046875 -3.34375 2.75 -3.34375 c 0.96875 0 1.828125 0.40625 2.375 1.09375 z m 0 0"/>
    </symbol>
    <path d="m 20 28 v 92 h 80 c 4.433594 0 8 -3.566406 8 -8 v -76 c 0 -4.433594 -3.566406 -8 -8 -8 z m 0 0" fill="#1c71d8"/>
    <path d="m 22 48 v 70 h 78 c 4.433594 0 8 -3.566406 8 -8 v -54 c 0 -4.433594 -3.566406 -8 -8 -8 z m 0 0" fill="url(#a)"/>
    <path d="m 20 28 v 84 h 80 c 4.433594 0 8 -3.566406 8 -8 v -68 c 0 -4.433594 -3.566406 -8 -8 -8 z m 0 0" fill="#1c71d8"/>
    <path d="m 20 8 v 102 h 80 c 4.433594 0 8 -3.566406 8 -8 v -86 c 0 -4.433594 -3.566406 -8 -8 -8 z m 0 0" fill="#3584e4"/>
    <g fill="#800000">
        <path d="m 73.871094 118.058594 c 0.371094 -0.003906 0.980468 -0.003906 1.351562 0 c 0.371094 0 0.066406 0.003906 -0.675781 0.003906 s -1.046875 -0.003906 -0.675781 -0.003906 z m 0 0"/>
        <path d="m 72.941406 118.054688 h -0.117187 l -0.003907 -0.027344 v -0.027344 h 1.371094 c 0.753906 0 1.371094 0 1.367188 0.003906 c 0 0 -0.542969 0.003906 -1.207032 0.003906 c -1.105468 0.003907 -1.449218 0.007813 -1.503906 0.015626 c -0.019531 0.003906 -0.023437 0.007812 -0.007812 0.011718 c 0.023437 0.007813 0.238281 0.011719 0.640625 0.015625 c 0.273437 0 0.390625 0.003907 0.332031 0.003907 c -0.085938 0.003906 -0.632812 0.003906 -0.871094 0 z m 0 0"/>
        <path d="m 73.722656 118.054688 h 0.132813 c 0.039062 0.003906 0.019531 0.003906 -0.070313 0.003906 c -0.105468 0 -0.117187 0 -0.0625 -0.003906 z m 0 0"/>
        <path d="m 71.6875 119.996094 h 1.132812 l 0.003907 -0.070313 v -0.070312 v 0.066406 l 0.003906 0.070313 h 1.367187 c 0.90625 0 1.367188 0 1.367188 0.003906 s -0.835938 0.003906 -2.503906 0.003906 c -1.847656 0 -2.207032 0 -1.371094 -0.003906 z m 0 0"/>
        <path d="m 72.824219 119.957031 c 0 -0.015625 0 -0.046875 0.003906 -0.066406 c 0 -0.035156 0 -0.035156 0 0.027344 c 0.003906 0.039062 0 0.070312 0 0.070312 s 0 -0.011719 -0.003906 -0.03125 z m 0 0"/>
    </g>
    <path d="m 20 8 h 11.964844 v 102 h -11.964844 z m 0 0" fill="#3d3846"/>
    <path d="m 20 110 v 10 h 11.984375 v -2.027344 l -8.988281 0.027344 v -6 h 8.988281 l -0.019531 -2 z m 0 0" fill="#241f31"/>
    <g fill="#1c71d8">
        <use x="40.234375" xlink:href="#j" y="63.515625"/>
        <use x="64.234375" xlink:href="#k" y="63.515625"/>
        <use x="78.234375" xlink:href="#l" y="63.515625"/>
        <use x="88.234375" xlink:href="#m" y="63.515625"/>
    </g>
    <g fill="#ffffff">
        <use x="40.234375" xlink:href="#j" y="64.515625"/>
        <use x="64.234375" xlink:href="#k" y="64.515625"/>
        <use x="78.234375" xlink:href="#l" y="64.515625"/>
        <use x="88.234375" xlink:href="#m" y="64.515625"/>
    </g>
    <path d="m 40 68 h 60" fill="none" stroke="#1c71d8" stroke-width="2.4"/>
    <path d="m 40 69 h 60" fill="none" stroke="#ffffff" stroke-width="2.4"/>
    <path d="m 26.984375 115 v 10 l 5 -5 l 5 5 v -10 z m 0 0" fill="#e01b24"/>
    <g clip-path="url(#i)" mask="url(#e)">
        <g clip-path="url(#h)" mask="url(#f)">
            <path d="m 128 80.640625 v 47.359375 h -128 v -47.359375 z m 0 0" fill="url(#g)"/>
            <path d="m 13.308594 80.640625 l 47.355468 47.359375 h 21.214844 l -47.359375 -47.359375 z m 42.421875 0 l 47.363281 47.359375 h 21.214844 l -47.363282 -47.359375 z m 42.429687 0 l 29.839844 29.839844 v -21.210938 l -8.628906 -8.628906 z m -98.160156 7.90625 v 21.214844 l 18.238281 18.238281 h 21.214844 z m 0 0"/>
        </g>
    </g>
</svg>
