<?xml version="1.0" encoding="UTF-8"?>
<svg height="128px" viewBox="0 0 128 128" width="128px" xmlns="http://www.w3.org/2000/svg" xmlns:xlink="http://www.w3.org/1999/xlink">
    <linearGradient id="a" gradientUnits="userSpaceOnUse" x1="99.999994" x2="107.999994" y1="82.999893" y2="82.999893">
        <stop offset="0" stop-color="#deddda"/>
        <stop offset="0.511049" stop-color="#ffffff"/>
        <stop offset="1" stop-color="#c0bfbc"/>
    </linearGradient>
    <path d="m 20 28 v 92 h 80 c 4.433594 0 8 -3.566406 8 -8 v -76 c 0 -4.433594 -3.566406 -8 -8 -8 z m 0 0" fill="#314e6c"/>
    <path d="m 22 48 v 70 h 78 c 4.433594 0 8 -3.566406 8 -8 v -54 c 0 -4.433594 -3.566406 -8 -8 -8 z m 0 0" fill="url(#a)"/>
    <path d="m 20 28 v 84 h 80 c 4.433594 0 8 -3.566406 8 -8 v -68 c 0 -4.433594 -3.566406 -8 -8 -8 z m 0 0" fill="#314e6c"/>
    <path d="m 20 8 v 102 h 80 c 4.433594 0 8 -3.566406 8 -8 v -86 c 0 -4.433594 -3.566406 -8 -8 -8 z m 0 0" fill="#7590ae"/>
    <g fill="#800000">
        <path d="m 73.871094 118.058594 c 0.371094 -0.003906 0.980468 -0.003906 1.351562 0 c 0.371094 0 0.066406 0.003906 -0.675781 0.003906 s -1.046875 -0.003906 -0.675781 -0.003906 z m 0 0"/>
        <path d="m 72.941406 118.054688 h -0.117187 l -0.003907 -0.027344 v -0.027344 h 1.371094 c 0.753906 0 1.371094 0 1.367188 0.003906 c 0 0 -0.542969 0.003906 -1.207032 0.003906 c -1.105468 0.003907 -1.449218 0.007813 -1.503906 0.015626 c -0.019531 0.003906 -0.023437 0.007812 -0.007812 0.011718 c 0.023437 0.007813 0.238281 0.011719 0.640625 0.015625 c 0.273437 0 0.390625 0.003907 0.332031 0.003907 c -0.085938 0.003906 -0.632812 0.003906 -0.871094 0 z m 0 0"/>
        <path d="m 73.722656 118.054688 h 0.132813 c 0.039062 0.003906 0.019531 0.003906 -0.070313 0.003906 c -0.105468 0 -0.117187 0 -0.0625 -0.003906 z m 0 0"/>
        <path d="m 71.6875 119.996094 h 1.132812 l 0.003907 -0.070313 v -0.070312 v 0.066406 l 0.003906 0.070313 h 1.367187 c 0.90625 0 1.367188 0 1.367188 0.003906 s -0.835938 0.003906 -2.503906 0.003906 c -1.847656 0 -2.207032 0 -1.371094 -0.003906 z m 0 0"/>
        <path d="m 72.824219 119.957031 c 0 -0.015625 0 -0.046875 0.003906 -0.066406 c 0 -0.035156 0 -0.035156 0 0.027344 c 0.003906 0.039062 0 0.070312 0 0.070312 s 0 -0.011719 -0.003906 -0.03125 z m 0 0"/>
    </g>
    <path d="m 20 8 h 11.964844 v 102 h -11.964844 z m 0 0" fill="#3d3846"/>
    <path d="m 20 110 v 10 h 11.984375 v -2.027344 l -8.988281 0.027344 v -6 h 8.988281 l -0.019531 -2 z m 0 0" fill="#241f31"/>
    <path d="m 43.015625 75.601562 h 4.121094 l 3.503906 -9.679687 h 13.683594 l 3.265625 9.679687 h 4.402344 l -11.550782 -32.609374 h -5.117187 z m 8.808594 -13.0625 l 5.820312 -16.210937 l 5.496094 16.210937 z m 0 0" fill="#565248" fill-opacity="0.996078"/>
    <path d="m 42.167969 75.203125 h 4.121093 l 3.503907 -9.679687 h 13.683593 l 3.265626 9.679687 h 4.40625 l -11.554688 -32.613281 h -5.113281 z m 8.808593 -13.0625 l 5.824219 -16.214844 l 5.492188 16.214844 z m 0 0"/>
    <path d="m 92.148438 75.707031 h 2.652343 v -14.710937 c 0 -5.402344 -3.222656 -8.410156 -9.1875 -8.410156 c -2.984375 0 -6.203125 0.800781 -8.664062 2.160156 l 3.050781 2.652344 c 2.367188 -1.03125 2.628906 -1.429688 4.855469 -1.429688 c 4.074219 0 6.15625 1.691406 6.15625 5.027344 v 1.503906 c -10.226563 0.101562 -14.675781 2.210938 -14.675781 7.050781 c 0 4.039063 3.027343 6.625 7.714843 6.625 c 2.886719 0 5.351563 -0.941406 7.199219 -2.585937 z m -1.136719 -5.078125 c -1.421875 1.410156 -3.503907 2.257813 -5.871094 2.257813 c -3.03125 0 -5.019531 -1.503907 -5.019531 -3.761719 c 0 -2.816406 3.21875 -3.992188 10.890625 -4.039062 z m 0 0" fill="#565248" fill-opacity="0.996078"/>
    <path d="m 91.347656 75.117188 h 2.652344 v -14.707032 c 0 -5.402344 -3.21875 -8.410156 -9.1875 -8.410156 c -2.980469 0 -6.199219 0.800781 -8.664062 2.160156 l 3.050781 2.652344 c 2.367187 -1.03125 2.632812 -1.429688 4.859375 -1.429688 c 4.070312 0 6.152344 1.691407 6.152344 5.027344 v 1.503906 c -10.226563 0.101563 -14.675782 2.207032 -14.675782 7.050782 c 0 4.039062 3.027344 6.625 7.714844 6.625 c 2.890625 0 5.351562 -0.941406 7.199219 -2.585938 z m -1.136718 -5.074219 c -1.417969 1.410156 -3.503907 2.257812 -5.871094 2.257812 c -3.027344 0 -5.019532 -1.503906 -5.019532 -3.761719 c 0 -2.816406 3.222657 -3.992187 10.890626 -4.039062 z m 0 0"/>
</svg>
