<?xml version="1.0" encoding="UTF-8" standalone="no"?>
<svg
   xmlns:dc="http://purl.org/dc/elements/1.1/"
   xmlns:cc="http://creativecommons.org/ns#"
   xmlns:rdf="http://www.w3.org/1999/02/22-rdf-syntax-ns#"
   xmlns:svg="http://www.w3.org/2000/svg"
   xmlns="http://www.w3.org/2000/svg"
   xmlns:sodipodi="http://sodipodi.sourceforge.net/DTD/sodipodi-0.dtd"
   xmlns:inkscape="http://www.inkscape.org/namespaces/inkscape"
   height="128px"
   viewBox="0 0 128 128"
   width="128px"
   version="1.1"
   id="svg41"
   sodipodi:docname="com.github.fushinari.Wordbook.svg"
   inkscape:version="1.0.2 (e86c870879, 2021-01-15)">
  <metadata
     id="metadata47">
    <rdf:RDF>
      <cc:Work
         rdf:about="">
        <dc:format>image/svg+xml</dc:format>
        <dc:type
           rdf:resource="http://purl.org/dc/dcmitype/StillImage" />
      </cc:Work>
    </rdf:RDF>
  </metadata>
  <defs
     id="defs45" />
  <sodipodi:namedview
     pagecolor="#ffffff"
     bordercolor="#666666"
     borderopacity="1"
     objecttolerance="10"
     gridtolerance="10"
     guidetolerance="10"
     inkscape:pageopacity="0"
     inkscape:pageshadow="2"
     inkscape:window-width="1366"
     inkscape:window-height="704"
     id="namedview43"
     showgrid="false"
     inkscape:zoom="2.6184896"
     inkscape:cx="38.647315"
     inkscape:cy="50.732563"
     inkscape:window-x="0"
     inkscape:window-y="0"
     inkscape:window-maximized="1"
     inkscape:current-layer="svg41">
    <inkscape:grid
       type="xygrid"
       id="grid876" />
  </sodipodi:namedview>
  <linearGradient
     id="a"
     gradientUnits="userSpaceOnUse"
     x1="99.999994"
     x2="107.999994"
     y1="82.999893"
     y2="82.999893">
    <stop
       offset="0"
       stop-color="#deddda"
       id="stop2" />
    <stop
       offset="0.511049"
       stop-color="#ffffff"
       id="stop4" />
    <stop
       offset="1"
       stop-color="#c0bfbc"
       id="stop6" />
  </linearGradient>
  <path
     d="m 20 28 v 92 h 80 c 4.433594 0 8 -3.566406 8 -8 v -76 c 0 -4.433594 -3.566406 -8 -8 -8 z m 0 0"
     fill="#314e6c"
     id="path9"
     style="fill:#1c71d8;fill-opacity:1" />
  <path
     d="m 22 48 v 70 h 78 c 4.433594 0 8 -3.566406 8 -8 v -54 c 0 -4.433594 -3.566406 -8 -8 -8 z m 0 0"
     fill="url(#a)"
     id="path11" />
  <path
     d="m 20 28 v 84 h 80 c 4.433594 0 8 -3.566406 8 -8 v -68 c 0 -4.433594 -3.566406 -8 -8 -8 z m 0 0"
     fill="#314e6c"
     id="path13"
     style="fill:#1c71d8;fill-opacity:1" />
  <path
     d="m 20 8 v 102 h 80 c 4.433594 0 8 -3.566406 8 -8 v -86 c 0 -4.433594 -3.566406 -8 -8 -8 z m 0 0"
     fill="#7590ae"
     id="path15"
     style="fill:#3584e4;fill-opacity:1" />
  <g
     fill="#800000"
     id="g27">
    <path
       d="m 73.871094 118.058594 c 0.371094 -0.003906 0.980468 -0.003906 1.351562 0 c 0.371094 0 0.066406 0.003906 -0.675781 0.003906 s -1.046875 -0.003906 -0.675781 -0.003906 z m 0 0"
       id="path17" />
    <path
       d="m 72.941406 118.054688 h -0.117187 l -0.003907 -0.027344 v -0.027344 h 1.371094 c 0.753906 0 1.371094 0 1.367188 0.003906 c 0 0 -0.542969 0.003906 -1.207032 0.003906 c -1.105468 0.003907 -1.449218 0.007813 -1.503906 0.015626 c -0.019531 0.003906 -0.023437 0.007812 -0.007812 0.011718 c 0.023437 0.007813 0.238281 0.011719 0.640625 0.015625 c 0.273437 0 0.390625 0.003907 0.332031 0.003907 c -0.085938 0.003906 -0.632812 0.003906 -0.871094 0 z m 0 0"
       id="path19" />
    <path
       d="m 73.722656 118.054688 h 0.132813 c 0.039062 0.003906 0.019531 0.003906 -0.070313 0.003906 c -0.105468 0 -0.117187 0 -0.0625 -0.003906 z m 0 0"
       id="path21" />
    <path
       d="m 71.6875 119.996094 h 1.132812 l 0.003907 -0.070313 v -0.070312 v 0.066406 l 0.003906 0.070313 h 1.367187 c 0.90625 0 1.367188 0 1.367188 0.003906 s -0.835938 0.003906 -2.503906 0.003906 c -1.847656 0 -2.207032 0 -1.371094 -0.003906 z m 0 0"
       id="path23" />
    <path
       d="m 72.824219 119.957031 c 0 -0.015625 0 -0.046875 0.003906 -0.066406 c 0 -0.035156 0 -0.035156 0 0.027344 c 0.003906 0.039062 0 0.070312 0 0.070312 s 0 -0.011719 -0.003906 -0.03125 z m 0 0"
       id="path25" />
  </g>
  <path
     d="m 20 8 h 11.964844 v 102 h -11.964844 z m 0 0"
     fill="#3d3846"
     id="path29" />
  <path
     d="m 20 110 v 10 h 11.984375 v -2.027344 l -8.988281 0.027344 v -6 h 8.988281 l -0.019531 -2 z m 0 0"
     fill="#241f31"
     id="path31" />
  <text
     xml:space="preserve"
     style="font-style:normal;font-weight:normal;font-size:23.6832px;line-height:1.25;font-family:sans-serif;fill:#1c71d8;fill-opacity:1;stroke:none;stroke-width:0.59208"
     x="40.234509"
     y="63.515038"
     id="text874-3"><tspan
       sodipodi:role="line"
       id="tspan872-6"
       x="40.234509"
       y="63.515038"
       style="font-style:normal;font-variant:normal;font-weight:bold;font-stretch:normal;font-family:Cantarell;-inkscape-font-specification:'Cantarell Bold';fill:#1c71d8;fill-opacity:1;stroke-width:0.59208">Word</tspan></text>
  <text
     xml:space="preserve"
     style="font-style:normal;font-weight:normal;font-size:23.6832px;line-height:1.25;font-family:sans-serif;fill:#000000;fill-opacity:1;stroke:none;stroke-width:0.59208"
     x="40.234509"
     y="64.515038"
     id="text874"><tspan
       sodipodi:role="line"
       id="tspan872"
       x="40.234509"
       y="64.515038"
       style="font-style:normal;font-variant:normal;font-weight:bold;font-stretch:normal;font-family:Cantarell;-inkscape-font-specification:'Cantarell Bold';fill:#ffffff;fill-opacity:1;stroke-width:0.59208">Word</tspan></text>
  <path
     style="fill:none;stroke:#1c71d8;stroke-width:2.4;stroke-linecap:butt;stroke-linejoin:miter;stroke-miterlimit:4;stroke-dasharray:none;stroke-opacity:1"
     d="m 40,68 h 60"
     id="path878-7" />
  <path
     style="fill:none;stroke:#ffffff;stroke-width:2.4;stroke-linecap:butt;stroke-linejoin:miter;stroke-miterlimit:4;stroke-dasharray:none;stroke-opacity:1"
     d="m 40,69 h 60"
     id="path878" />
  <path
     style="fill:#e01b24;fill-opacity:1;stroke:none;stroke-width:1px;stroke-linecap:butt;stroke-linejoin:miter;stroke-opacity:1"
     d="m 26.984375,115 v 10 l 5,-5 5,5 v -10 z"
     id="path880" />
</svg>
