<?xml version="1.0" encoding="UTF-8"?>
<svg height="16px" viewBox="0 0 16 16" width="16px" xmlns="http://www.w3.org/2000/svg">
    <g fill="#808080">
        <path d="m 4.800781 9.988281 h 0.6875 l 0.582031 -1.613281 h 2.28125 l 0.546876 1.613281 h 0.734374 l -1.925781 -5.4375 h -0.855469 z m 1.46875 -2.179687 l 0.96875 -2.699219 l 0.917969 2.699219 z m 0 0"/>
        <path d="m 12.695312 9.988281 h 0.441407 v -2.453125 c 0 -0.898437 -0.539063 -1.402344 -1.53125 -1.402344 c -0.5 0 -1.035157 0.132813 -1.445313 0.363282 l 0.15625 0.460937 c 0.394532 -0.171875 0.789063 -0.257812 1.160156 -0.257812 c 0.660157 0 1.007813 0.265625 1.027344 0.792969 v 0.042968 v 0.25 c -1.703125 0.015625 -2.445312 0.371094 -2.445312 1.175782 c 0 0.675781 0.503906 1.105468 1.285156 1.105468 c 0.480469 0 0.890625 -0.15625 1.199219 -0.429687 z m -0.191406 -0.847656 c -0.234375 0.238281 -0.582031 0.378906 -0.976562 0.378906 c -0.507813 0 -0.839844 -0.253906 -0.839844 -0.628906 c 0 -0.46875 0.539062 -0.664063 1.816406 -0.671875 z m 0 0"/>
        <path d="m 1 7.988281 v -7.988281 h 14 v 15.976562 h -14 z m 13 0.011719 c 0.019531 -2.332031 -0.019531 -4.667969 0 -7 h -12 c 0.003906 4.667969 0.003906 9.332031 0 14 h 12 c 0.015625 -2.332031 0.007812 -4.667969 0 -7 z m 0 0"/>
        <path d="m 2 1 h 2 v 14 h -2 z m 0 0"/>
    </g>
</svg>
