<?xml version="1.0" encoding="UTF-8"?>
<svg height="128px" viewBox="0 0 128 128" width="128px" xmlns="http://www.w3.org/2000/svg" xmlns:xlink="http://www.w3.org/1999/xlink">
    <linearGradient id="a" gradientUnits="userSpaceOnUse" x1="99.999981" x2="107.999981" y1="82.999344" y2="82.999344">
        <stop offset="0" stop-color="#deddda"/>
        <stop offset="0.511049" stop-color="#ffffff"/>
        <stop offset="1" stop-color="#c0bfbc"/>
    </linearGradient>
    <clipPath id="b">
        <rect height="128" width="128"/>
    </clipPath>
    <clipPath id="c">
        <rect height="128" width="128"/>
    </clipPath>
    <filter id="d" height="100%" width="100%" x="0%" y="0%">
        <feColorMatrix in="SourceGraphic" type="matrix" values="0 0 0 0 1 0 0 0 0 1 0 0 0 0 1 0 0 0 1 0"/>
    </filter>
    <mask id="e">
        <g clip-path="url(#c)" filter="url(#d)">
            <g clip-path="url(#b)">
                <path d="m 20 28 v 92 h 80 c 4.433594 0 8 -3.566406 8 -8 v -76 c 0 -4.433594 -3.566406 -8 -8 -8 z m 0 0" fill="#1c71d8"/>
                <path d="m 22 48 v 70 h 78 c 4.433594 0 8 -3.566406 8 -8 v -54 c 0 -4.433594 -3.566406 -8 -8 -8 z m 0 0" fill="url(#a)"/>
                <path d="m 20 28 v 84 h 80 c 4.433594 0 8 -3.566406 8 -8 v -68 c 0 -4.433594 -3.566406 -8 -8 -8 z m 0 0" fill="#1c71d8"/>
                <path d="m 20 8 v 102 h 80 c 4.433594 0 8 -3.566406 8 -8 v -86 c 0 -4.433594 -3.566406 -8 -8 -8 z m 0 0" fill="#3584e4"/>
                <path d="m 73.871094 118.058594 c 0.371094 -0.003906 0.980468 -0.003906 1.351562 0 c 0.371094 0 0.066406 0.003906 -0.675781 0.003906 s -1.046875 -0.003906 -0.675781 -0.003906 z m 0 0" fill="#800000"/>
                <path d="m 72.941406 118.054688 h -0.117187 l -0.003907 -0.027344 v -0.027344 h 1.371094 c 0.753906 0 1.371094 0 1.367188 0.003906 c 0 0 -0.542969 0.003906 -1.207032 0.003906 c -1.105468 0.003907 -1.449218 0.007813 -1.503906 0.015626 c -0.019531 0.003906 -0.023437 0.007812 -0.007812 0.011718 c 0.023437 0.007813 0.238281 0.011719 0.640625 0.015625 c 0.273437 0 0.390625 0.003907 0.332031 0.003907 c -0.085938 0.003906 -0.632812 0.003906 -0.871094 0 z m 0 0" fill="#800000"/>
                <path d="m 73.722656 118.054688 h 0.132813 c 0.039062 0.003906 0.019531 0.003906 -0.070313 0.003906 c -0.105468 0 -0.117187 0 -0.0625 -0.003906 z m 0 0" fill="#800000"/>
                <path d="m 71.6875 119.996094 h 1.132812 l 0.003907 -0.070313 v -0.070312 v 0.066406 l 0.003906 0.070313 h 1.367187 c 0.90625 0 1.367188 0 1.367188 0.003906 s -0.835938 0.003906 -2.503906 0.003906 c -1.847656 0 -2.207032 0 -1.371094 -0.003906 z m 0 0" fill="#800000"/>
                <path d="m 72.824219 119.957031 c 0 -0.015625 0 -0.046875 0.003906 -0.066406 c 0 -0.035156 0 -0.035156 0 0.027344 c 0.003906 0.039062 0 0.070312 0 0.070312 s 0 -0.011719 -0.003906 -0.03125 z m 0 0" fill="#800000"/>
                <path d="m 20 8 h 11.964844 v 102 h -11.964844 z m 0 0" fill="#3d3846"/>
                <path d="m 20 110 v 10 h 11.984375 v -2.027344 l -8.988281 0.027344 v -6 h 8.988281 l -0.019531 -2 z m 0 0" fill="#241f31"/>
                <path d="m 45.183594 63.515625 h 3.246094 l 3.574218 -12.410156 l 3.863282 12.410156 h 3.171874 l 4.785157 -16.4375 h -3.078125 l -3.222656 12.386719 l -3.671876 -12.292969 h -3.363281 l -3.550781 12.554687 l -3.125 -12.648437 h -3.484375 z m 0 0" fill="#1c71d8"/>
                <path d="m 70.644531 63.75 c 3.621094 0 6.0625 -2.484375 6.0625 -6.179688 c 0 -3.527343 -2.25 -5.800781 -5.707031 -5.800781 c -3.648438 0 -6.085938 2.460938 -6.085938 6.179688 c 0 3.503906 2.222657 5.800781 5.730469 5.800781 z m 0.257813 -2.554688 c -1.773438 0 -2.933594 -1.375 -2.933594 -3.507812 c 0 -2.082031 1.066406 -3.363281 2.746094 -3.363281 c 1.777344 0 2.9375 1.398437 2.9375 3.554687 c 0 2.035156 -1.066406 3.316406 -2.75 3.316406 z m 0 0" fill="#1c71d8"/>
                <path d="m 79.40625 63.515625 h 3.03125 v -7.484375 c 0.6875 -0.828125 1.660156 -1.304688 2.722656 -1.304688 c 0.476563 0 1.042969 0.097657 1.46875 0.261719 l 0.6875 -2.769531 c -0.472656 -0.214844 -1.089844 -0.332031 -1.703125 -0.332031 c -1.375 0 -2.628906 0.664062 -3.507812 1.824219 l -0.285157 -1.707032 h -2.414062 z m 0 0" fill="#1c71d8"/>
                <path d="m 93.402344 63.75 c 1.445312 0 2.675781 -0.566406 3.53125 -1.5625 l 0.636718 1.328125 h 1.941407 v -17.503906 h -2.933594 v 6.632812 c -0.734375 -0.59375 -1.683594 -0.875 -2.773437 -0.875 c -3.242188 0 -5.398438 2.414063 -5.398438 6.085938 c 0 3.550781 2.058594 5.894531 4.996094 5.894531 z m 3.175781 -3.597656 c -0.523437 0.664062 -1.304687 1.042968 -2.226563 1.042968 c -1.777343 0 -2.890624 -1.375 -2.890624 -3.53125 c 0 -2.058593 1.042968 -3.339843 2.746093 -3.339843 c 0.972657 0 1.824219 0.402343 2.371094 1.089843 z m 0 0" fill="#1c71d8"/>
                <path d="m 45.183594 64.515625 h 3.246094 l 3.574218 -12.410156 l 3.863282 12.410156 h 3.171874 l 4.785157 -16.4375 h -3.078125 l -3.222656 12.386719 l -3.671876 -12.292969 h -3.363281 l -3.550781 12.554687 l -3.125 -12.648437 h -3.484375 z m 0 0" fill="#ffffff"/>
                <path d="m 70.644531 64.75 c 3.621094 0 6.0625 -2.484375 6.0625 -6.179688 c 0 -3.527343 -2.25 -5.800781 -5.707031 -5.800781 c -3.648438 0 -6.085938 2.460938 -6.085938 6.179688 c 0 3.503906 2.222657 5.800781 5.730469 5.800781 z m 0.257813 -2.554688 c -1.773438 0 -2.933594 -1.375 -2.933594 -3.507812 c 0 -2.082031 1.066406 -3.363281 2.746094 -3.363281 c 1.777344 0 2.9375 1.398437 2.9375 3.554687 c 0 2.035156 -1.066406 3.316406 -2.75 3.316406 z m 0 0" fill="#ffffff"/>
                <path d="m 79.40625 64.515625 h 3.03125 v -7.484375 c 0.6875 -0.828125 1.660156 -1.304688 2.722656 -1.304688 c 0.476563 0 1.042969 0.097657 1.46875 0.261719 l 0.6875 -2.769531 c -0.472656 -0.214844 -1.089844 -0.332031 -1.703125 -0.332031 c -1.375 0 -2.628906 0.664062 -3.507812 1.824219 l -0.285157 -1.707032 h -2.414062 z m 0 0" fill="#ffffff"/>
                <path d="m 93.402344 64.75 c 1.445312 0 2.675781 -0.566406 3.53125 -1.5625 l 0.636718 1.328125 h 1.941407 v -17.503906 h -2.933594 v 6.632812 c -0.734375 -0.59375 -1.683594 -0.875 -2.773437 -0.875 c -3.242188 0 -5.398438 2.414063 -5.398438 6.085938 c 0 3.550781 2.058594 5.894531 4.996094 5.894531 z m 3.175781 -3.597656 c -0.523437 0.664062 -1.304687 1.042968 -2.226563 1.042968 c -1.777343 0 -2.890624 -1.375 -2.890624 -3.53125 c 0 -2.058593 1.042968 -3.339843 2.746093 -3.339843 c 0.972657 0 1.824219 0.402343 2.371094 1.089843 z m 0 0" fill="#ffffff"/>
                <path d="m 40 240 h 60" fill="none" stroke="#1c71d8" stroke-width="2.4" transform="matrix(1 0 0 1 0 -172)"/>
                <path d="m 40 241 h 60" fill="none" stroke="#ffffff" stroke-width="2.4" transform="matrix(1 0 0 1 0 -172)"/>
                <path d="m 26.984375 115 v 10 l 5 -5 l 5 5 v -10 z m 0 0" fill="#e01b24"/>
            </g>
        </g>
    </mask>
    <mask id="f">
        <g filter="url(#d)">
            <rect fill-opacity="0.8" height="128" width="128"/>
        </g>
    </mask>
    <linearGradient id="g" gradientTransform="matrix(0 0.37 -0.98462 0 295.38501 -30.360001)" gradientUnits="userSpaceOnUse" x1="300" x2="428" y1="235" y2="235">
        <stop offset="0" stop-color="#f9f06b"/>
        <stop offset="1" stop-color="#f5c211"/>
    </linearGradient>
    <clipPath id="h">
        <rect height="128" width="128"/>
    </clipPath>
    <clipPath id="i">
        <rect height="128" width="128"/>
    </clipPath>
    <path d="m 20 28 v 92 h 80 c 4.433594 0 8 -3.566406 8 -8 v -76 c 0 -4.433594 -3.566406 -8 -8 -8 z m 0 0" fill="#1c71d8"/>
    <path d="m 22 48 v 70 h 78 c 4.433594 0 8 -3.566406 8 -8 v -54 c 0 -4.433594 -3.566406 -8 -8 -8 z m 0 0" fill="url(#a)"/>
    <path d="m 20 28 v 84 h 80 c 4.433594 0 8 -3.566406 8 -8 v -68 c 0 -4.433594 -3.566406 -8 -8 -8 z m 0 0" fill="#1c71d8"/>
    <path d="m 20 8 v 102 h 80 c 4.433594 0 8 -3.566406 8 -8 v -86 c 0 -4.433594 -3.566406 -8 -8 -8 z m 0 0" fill="#3584e4"/>
    <g fill="#800000">
        <path d="m 73.871094 118.058594 c 0.371094 -0.003906 0.980468 -0.003906 1.351562 0 c 0.371094 0 0.066406 0.003906 -0.675781 0.003906 s -1.046875 -0.003906 -0.675781 -0.003906 z m 0 0"/>
        <path d="m 72.941406 118.054688 h -0.117187 l -0.003907 -0.027344 v -0.027344 h 1.371094 c 0.753906 0 1.371094 0 1.367188 0.003906 c 0 0 -0.542969 0.003906 -1.207032 0.003906 c -1.105468 0.003907 -1.449218 0.007813 -1.503906 0.015626 c -0.019531 0.003906 -0.023437 0.007812 -0.007812 0.011718 c 0.023437 0.007813 0.238281 0.011719 0.640625 0.015625 c 0.273437 0 0.390625 0.003907 0.332031 0.003907 c -0.085938 0.003906 -0.632812 0.003906 -0.871094 0 z m 0 0"/>
        <path d="m 73.722656 118.054688 h 0.132813 c 0.039062 0.003906 0.019531 0.003906 -0.070313 0.003906 c -0.105468 0 -0.117187 0 -0.0625 -0.003906 z m 0 0"/>
        <path d="m 71.6875 119.996094 h 1.132812 l 0.003907 -0.070313 v -0.070312 v 0.066406 l 0.003906 0.070313 h 1.367187 c 0.90625 0 1.367188 0 1.367188 0.003906 s -0.835938 0.003906 -2.503906 0.003906 c -1.847656 0 -2.207032 0 -1.371094 -0.003906 z m 0 0"/>
        <path d="m 72.824219 119.957031 c 0 -0.015625 0 -0.046875 0.003906 -0.066406 c 0 -0.035156 0 -0.035156 0 0.027344 c 0.003906 0.039062 0 0.070312 0 0.070312 s 0 -0.011719 -0.003906 -0.03125 z m 0 0"/>
    </g>
    <path d="m 20 8 h 11.964844 v 102 h -11.964844 z m 0 0" fill="#3d3846"/>
    <path d="m 20 110 v 10 h 11.984375 v -2.027344 l -8.988281 0.027344 v -6 h 8.988281 l -0.019531 -2 z m 0 0" fill="#241f31"/>
    <path d="m 45.183594 63.515625 h 3.246094 l 3.574218 -12.410156 l 3.863282 12.410156 h 3.171874 l 4.785157 -16.4375 h -3.078125 l -3.222656 12.386719 l -3.671876 -12.292969 h -3.363281 l -3.550781 12.554687 l -3.125 -12.648437 h -3.484375 z m 0 0" fill="#1c71d8"/>
    <path d="m 70.644531 63.75 c 3.621094 0 6.0625 -2.484375 6.0625 -6.179688 c 0 -3.527343 -2.25 -5.800781 -5.707031 -5.800781 c -3.648438 0 -6.085938 2.460938 -6.085938 6.179688 c 0 3.503906 2.222657 5.800781 5.730469 5.800781 z m 0.257813 -2.554688 c -1.773438 0 -2.933594 -1.375 -2.933594 -3.507812 c 0 -2.082031 1.066406 -3.363281 2.746094 -3.363281 c 1.777344 0 2.9375 1.398437 2.9375 3.554687 c 0 2.035156 -1.066406 3.316406 -2.75 3.316406 z m 0 0" fill="#1c71d8"/>
    <path d="m 79.40625 63.515625 h 3.03125 v -7.484375 c 0.6875 -0.828125 1.660156 -1.304688 2.722656 -1.304688 c 0.476563 0 1.042969 0.097657 1.46875 0.261719 l 0.6875 -2.769531 c -0.472656 -0.214844 -1.089844 -0.332031 -1.703125 -0.332031 c -1.375 0 -2.628906 0.664062 -3.507812 1.824219 l -0.285157 -1.707032 h -2.414062 z m 0 0" fill="#1c71d8"/>
    <path d="m 93.402344 63.75 c 1.445312 0 2.675781 -0.566406 3.53125 -1.5625 l 0.636718 1.328125 h 1.941407 v -17.503906 h -2.933594 v 6.632812 c -0.734375 -0.59375 -1.683594 -0.875 -2.773437 -0.875 c -3.242188 0 -5.398438 2.414063 -5.398438 6.085938 c 0 3.550781 2.058594 5.894531 4.996094 5.894531 z m 3.175781 -3.597656 c -0.523437 0.664062 -1.304687 1.042968 -2.226563 1.042968 c -1.777343 0 -2.890624 -1.375 -2.890624 -3.53125 c 0 -2.058593 1.042968 -3.339843 2.746093 -3.339843 c 0.972657 0 1.824219 0.402343 2.371094 1.089843 z m 0 0" fill="#1c71d8"/>
    <path d="m 45.183594 64.515625 h 3.246094 l 3.574218 -12.410156 l 3.863282 12.410156 h 3.171874 l 4.785157 -16.4375 h -3.078125 l -3.222656 12.386719 l -3.671876 -12.292969 h -3.363281 l -3.550781 12.554687 l -3.125 -12.648437 h -3.484375 z m 0 0" fill="#ffffff"/>
    <path d="m 70.644531 64.75 c 3.621094 0 6.0625 -2.484375 6.0625 -6.179688 c 0 -3.527343 -2.25 -5.800781 -5.707031 -5.800781 c -3.648438 0 -6.085938 2.460938 -6.085938 6.179688 c 0 3.503906 2.222657 5.800781 5.730469 5.800781 z m 0.257813 -2.554688 c -1.773438 0 -2.933594 -1.375 -2.933594 -3.507812 c 0 -2.082031 1.066406 -3.363281 2.746094 -3.363281 c 1.777344 0 2.9375 1.398437 2.9375 3.554687 c 0 2.035156 -1.066406 3.316406 -2.75 3.316406 z m 0 0" fill="#ffffff"/>
    <path d="m 79.40625 64.515625 h 3.03125 v -7.484375 c 0.6875 -0.828125 1.660156 -1.304688 2.722656 -1.304688 c 0.476563 0 1.042969 0.097657 1.46875 0.261719 l 0.6875 -2.769531 c -0.472656 -0.214844 -1.089844 -0.332031 -1.703125 -0.332031 c -1.375 0 -2.628906 0.664062 -3.507812 1.824219 l -0.285157 -1.707032 h -2.414062 z m 0 0" fill="#ffffff"/>
    <path d="m 93.402344 64.75 c 1.445312 0 2.675781 -0.566406 3.53125 -1.5625 l 0.636718 1.328125 h 1.941407 v -17.503906 h -2.933594 v 6.632812 c -0.734375 -0.59375 -1.683594 -0.875 -2.773437 -0.875 c -3.242188 0 -5.398438 2.414063 -5.398438 6.085938 c 0 3.550781 2.058594 5.894531 4.996094 5.894531 z m 3.175781 -3.597656 c -0.523437 0.664062 -1.304687 1.042968 -2.226563 1.042968 c -1.777343 0 -2.890624 -1.375 -2.890624 -3.53125 c 0 -2.058593 1.042968 -3.339843 2.746093 -3.339843 c 0.972657 0 1.824219 0.402343 2.371094 1.089843 z m 0 0" fill="#ffffff"/>
    <path d="m 40 68 h 60" fill="none" stroke="#1c71d8" stroke-width="2.4"/>
    <path d="m 40 69 h 60" fill="none" stroke="#ffffff" stroke-width="2.4"/>
    <path d="m 26.984375 115 v 10 l 5 -5 l 5 5 v -10 z m 0 0" fill="#e01b24"/>
    <g clip-path="url(#i)" mask="url(#e)">
        <g clip-path="url(#h)" mask="url(#f)">
            <path d="m 128 80.640625 v 47.359375 h -128 v -47.359375 z m 0 0" fill="url(#g)"/>
            <path d="m 13.308594 80.640625 l 47.355468 47.359375 h 21.214844 l -47.359375 -47.359375 z m 42.421875 0 l 47.363281 47.359375 h 21.214844 l -47.363282 -47.359375 z m 42.429687 0 l 29.839844 29.839844 v -21.210938 l -8.628906 -8.628906 z m -98.160156 7.90625 v 21.214844 l 18.238281 18.238281 h 21.214844 z m 0 0"/>
        </g>
    </g>
</svg>
